<svg xmlns="http://www.w3.org/2000/svg" viewBox="0 0 120 120" width="120" height="120">
  <defs>
    <radialGradient id="glow14" cx="50%" cy="50%" r="50%">
      <stop offset="0%" stop-color="#A7B6BE" stop-opacity="0.8"/>
      <stop offset="100%" stop-color="#78909C" stop-opacity="0.3"/>
    </radialGradient>
  </defs>
  <circle cx="60" cy="60" r="58" fill="#1A1A2E" stroke="#78909C" stroke-width="2"/>
  <!-- Glow aura -->
  <circle cx="60" cy="60" r="45" fill="url(#glow14)"/>
  <!-- Halo -->
  <ellipse cx="60" cy="25" rx="20" ry="6" fill="none" stroke="#FFD700" stroke-width="2.5" opacity="0.8"/>
  <!-- Face -->
  <circle cx="60" cy="58" r="28" fill="#BBC7CD" stroke="#48565D" stroke-width="1.5"/>
  <!-- Eyes -->
  <ellipse cx="50" cy="55" rx="5" ry="6" fill="white" stroke="#48565D" stroke-width="0.8"/>
  <ellipse cx="70" cy="55" rx="5" ry="6" fill="white" stroke="#48565D" stroke-width="0.8"/>
  <circle cx="51" cy="55" r="3" fill="#364046"/>
  <circle cx="71" cy="55" r="3" fill="#364046"/>
  <circle cx="52" cy="53.5" r="1.2" fill="white"/>
  <circle cx="72" cy="53.5" r="1.2" fill="white"/>
  <!-- Smile -->
  <path d="M 52 67 Q 60 73 68 67" fill="none" stroke="#48565D" stroke-width="1.5" stroke-linecap="round"/>
  <!-- Cosmic sparkles -->
  <polygon points="25.0,16.0 23.6,18.6 21.0,20.0 23.6,21.4 25.0,24.0 26.4,21.4 29.0,20.0 26.4,18.6" fill="#FFD700" opacity="0.6"/>
  <polygon points="90.0,27.0 88.9,28.9 87.0,30.0 88.9,31.1 90.0,33.0 91.1,31.1 93.0,30.0 91.1,28.9" fill="#FFD700" opacity="0.5"/>
  <polygon points="85.0,86.5 83.9,88.9 81.5,90.0 83.9,91.1 85.0,93.5 86.1,91.1 88.5,90.0 86.1,88.9" fill="#FFD700" opacity="0.4"/>
</svg>