<svg xmlns="http://www.w3.org/2000/svg" viewBox="0 0 120 120" width="120" height="120">
  <defs>
    <radialGradient id="spirit50" cx="50%" cy="40%" r="60%">
      <stop offset="0%" stop-color="white" stop-opacity="0.9"/>
      <stop offset="100%" stop-color="#80DEEA" stop-opacity="0.4"/>
    </radialGradient>
  </defs>
  <circle cx="60" cy="60" r="58" fill="#E0F7FA" stroke="#80DEEA" stroke-width="2"/>
  <!-- Spirit body (wavy bottom) -->
  <path d="M 30 50 Q 30 25 60 20 Q 90 25 90 50 L 90 75 Q 85 85 78 75 Q 72 85 65 75 Q 58 85 52 75 Q 45 85 38 75 Q 32 85 30 75 Z" fill="url(#spirit50)" stroke="#80DEEA" stroke-width="1.5" opacity="0.85"/>
  <!-- Eyes -->
  <ellipse cx="48" cy="45" rx="6" ry="7" fill="white" stroke="#4C858C" stroke-width="0.8"/>
  <ellipse cx="72" cy="45" rx="6" ry="7" fill="white" stroke="#4C858C" stroke-width="0.8"/>
  <ellipse cx="49" cy="46" rx="3.5" ry="4.5" fill="#80DEEA"/>
  <ellipse cx="73" cy="46" rx="3.5" ry="4.5" fill="#80DEEA"/>
  <circle cx="50" cy="44" r="1.5" fill="white"/>
  <circle cx="74" cy="44" r="1.5" fill="white"/>
  <!-- Gentle smile -->
  <path d="M 52 58 Q 60 64 68 58" fill="none" stroke="#4C858C" stroke-width="1.5" stroke-linecap="round"/>
  <!-- Sparkles -->
  <circle cx="35" cy="30" r="2" fill="white" opacity="0.7"/>
  <circle cx="85" cy="35" r="1.5" fill="white" opacity="0.6"/>
  <circle cx="25" cy="65" r="1.8" fill="white" opacity="0.5"/>
</svg>